<svg width="128" height="128" viewBox="0 0 128 128" xmlns="http://www.w3.org/2000/svg">
  <defs>
    <linearGradient id="bg" x1="0%" y1="0%" x2="100%" y2="100%">
      <stop offset="0%" style="stop-color:#667eea"/>
      <stop offset="100%" style="stop-color:#764ba2"/>
    </linearGradient>
  </defs>
  <rect width="128" height="128" rx="24" fill="url(#bg)"/>
  <!-- Book icon -->
  <g transform="translate(24, 24)" fill="white">
    <path d="M40 0C26.7 0 16 10.7 16 24v48c0 4.4 3.6 8 8 8h40c4.4 0 8-3.6 8-8V8c0-4.4-3.6-8-8-8H40zM24 24c0-8.8 7.2-16 16-16h24v56H24V24z"/>
    <rect x="32" y="20" width="24" height="4" rx="2"/>
    <rect x="32" y="28" width="20" height="4" rx="2"/>
    <rect x="32" y="36" width="16" height="4" rx="2"/>
  </g>
  <!-- Sync arrows -->
  <g transform="translate(80, 80)" fill="white">
    <path d="M0 12l8-8v6h12v4H8v6L0 12z"/>
    <path d="M32 20l-8 8v-6H12v-4h12V12l8 8z"/>
  </g>
</svg>
